<?xml version="1.0" encoding="utf-8"?>
<svg xmlns="http://www.w3.org/2000/svg" xmlns:xlink="http://www.w3.org/1999/xlink" version= "1.1" width="1146px" height="818px" viewBox="-213 302 1146 818">
<g id="layer1">
<g style="fill:rgb(117,193,235); fill-opacity:1.0; stroke-linejoin: miter">
<path d="M-213.001,301.19873C-213.21326,301.19873,-213.41681,301.28302,-213.5669,301.4331C-213.71698,301.5832,-213.80128,301.78674,-213.80128,301.999L-213.80028,1120.0C-213.80028,1120.442,-213.44199,1120.8003,-213.0,1120.8003L933.001,1120.8013C933.2132,1120.8013,933.41675,1120.7169,933.56683,1120.5669C933.7169,1120.4169,933.8013,1120.2133,933.8013,1120.001L933.8003,302.0C933.8003,301.558,933.44196,301.19974,933.0,301.19974L-213.001,301.19873 Z"/>
</g>
<g style="fill:rgb(0,0,0); fill-opacity:1.0; stroke-linejoin: miter">
<path d="M470.99353,1001.7925L432.28128,992.46204Q422.13135,1003.4607,414.12872,1008.63617Q409.91473,1011.4622,403.8374,1014.4256Q400.85455,1015.9825,385.6688,1022.56635Q383.13266,1023.72186,381.62418,1024.5586Q377.2668,1026.9128,378.09116,1028.5728Q379.47726,1031.0798,390.5549,1033.5852Q400.25623,1035.5693,408.70874,1035.041Q420.1902,1034.2585,431.29288,1029.7568Q440.189,1026.1892,442.8835,1020.7823L447.4979,1025.5527Q460.86835,1024.8113,466.23785,1023.1746Q473.34064,1021.21295,474.21295,1016.48553Q475.34332,1011.294,470.99768,1001.8014 Z"/>
</g>
<g style="fill:rgb(0,0,0); fill-opacity:1.0; stroke-linejoin: miter">
<path d="M543.9828,987.4037Q535.5532,988.0637,529.9783,996.82117Q522.036,1009.42865,518.7473,1025.0701Q517.0161,1034.6565,520.776,1038.9929Q525.07385,1043.6909,534.17126,1042.7769Q544.48804,1041.4487,552.62854,1035.2417Q559.60974,1029.8184,560.9099,1021.544Q562.04285,1015.123,560.6581,1006.2199L550.20435,987.2893Q546.20105,987.14954,544.02637,987.3994 Z"/>
</g>
<g style="fill:rgb(16,9,0); fill-opacity:1.0; stroke-linejoin: miter">
<path d="M492.34473,438.34256Q485.52496,438.84732,477.79608,443.39932Q470.13312,447.76865,467.66248,452.95358Q465.5171,457.08823,465.14514,466.3718Q464.6234,484.68826,465.75507,492.29544L511.4718,499.01898Q520.65515,496.25153,521.31555,492.28275Q521.589,491.35306,521.74817,489.89792L522.3225,483.00174Q523.9459,470.78098,523.9685,468.21292Q524.3075,462.02542,523.0774,458.18497Q521.1079,450.81155,509.56195,443.51358Q500.40485,437.4941,492.3506,438.34195 Z"/>
</g>
<g style="fill:rgb(255,193,161); fill-opacity:1.0; stroke-linejoin: miter">
<path d="M502.04797,453.45273L490.5586,455.63815Q488.6751,455.94626,481.82684,455.62955L479.7434,455.82053Q477.14447,456.2521,474.48383,458.3793Q470.4143,461.6232,469.21765,467.99625Q468.18732,472.46158,469.13916,487.853Q469.13104,488.15573,468.83386,487.4899Q467.4308,483.228,466.94836,482.3655Q466.41248,481.19168,465.7329,480.83694Q463.94177,480.24173,462.71417,485.14703Q461.91486,489.53473,463.23834,493.52243Q463.72235,494.8568,464.3941,495.6333Q464.65283,496.07068,466.79688,497.71472Q467.2467,498.18848,467.40753,498.59875Q467.50934,498.16333,468.64508,503.94897L469.6156,507.07343Q470.1656,508.60248,470.7262,509.73944Q470.97308,510.36493,472.39917,512.40924L472.80255,513.50275Q473.4582,515.2695,471.30884,526.4467L475.2661,544.8659Q480.38593,545.2552,482.98596,544.945Q488.79803,544.4974,494.529,539.8737Q501.51544,534.2654,509.8413,523.8477Q513.2385,519.4029,513.7722,517.32025Q514.2761,516.1165,513.65125,513.12384Q513.4778,512.9736,515.17065,509.69794Q515.4252,509.0976,515.5531,508.45038Q515.782,507.79742,515.4359,504.28436Q515.45557,503.51532,515.6461,503.16534Q515.82446,502.6894,516.6632,502.29376L520.37036,501.04852Q521.02,500.73517,521.66943,499.87408Q522.30396,498.95966,522.8085,497.5323Q525.53125,490.06973,525.51965,489.37222Q526.1072,486.7576,525.2477,485.225Q524.0658,483.2327,522.3286,483.60092Q521.4602,483.85336,520.5674,485.26816Q520.1361,485.7344,517.71265,491.37698Q517.2163,492.29922,517.1338,491.89505Q516.9917,491.37674,517.17065,489.47476Q519.0587,474.73355,518.88416,472.2872Q518.9696,466.86618,517.5032,463.14285Q512.6382,452.69864,502.1264,453.44528 Z"/>
</g>
<g style="fill:rgb(167,197,248); fill-opacity:1.0; stroke-linejoin: miter">
<path d="M513.9453,516.6165L485.96326,539.8599L471.68634,526.5175Q472.6482,521.82745,472.0387,522.0793Q471.63617,521.54535,466.11328,532.0905L443.41843,624.8926L433.45157,720.45374Q474.91702,760.90234,491.26294,718.5824Q500.54382,695.4741,506.984,637.86914Q510.66022,606.27637,515.79846,535.81555L516.3898,522.6934L513.99866,516.74835 Z"/>
</g>
<g style="fill:rgb(0,0,0); fill-opacity:1.0; stroke-linejoin: miter">
<path d="M495.95724,838.58386Q520.04395,907.7035,523.19556,925.892Q525.27124,936.2674,525.35706,943.6773Q525.7245,946.1993,523.9475,963.2238Q523.7621,966.25104,523.93823,968.794Q524.08167,971.0407,524.68787,973.7989Q528.08984,986.1752,527.9839,987.2466Q528.6173,991.084,528.2024,998.47363Q545.6437,994.33386,547.3557,995.74304Q547.7821,995.3025,552.46924,999.5281Q552.50793,999.23096,558.97314,1006.7847Q560.40125,1008.23444,561.0945,1008.2425Q561.7207,1008.3697,562.1929,1006.9257Q563.2511,1000.66675,566.11206,992.8672L562.3147,986.0261Q564.53735,985.073,564.7567,981.4404Q564.838,980.47723,564.7886,978.48956Q564.0918,966.68805,564.2732,965.31354L565.5575,947.95087Q565.84924,942.67035,565.775,939.0998Q565.73035,936.705,565.5321,934.71075Q564.0956,924.28876,564.15027,921.8759Q563.9514,920.1455,564.44385,904.0836Q564.46484,901.23035,564.2905,899.1548L563.3157,891.0442Q562.64954,875.2706,561.8779,870.94336Q561.3014,866.67773,560.5604,863.24634Q560.2953,862.0039,559.9386,860.7706L558.7449,857.16907Q558.43713,855.86743,558.3607,854.84436Q558.01697,851.479,558.1471,840.17053L496.0709,838.5858 Z"/>
</g>
<g style="fill:rgb(0,0,0); fill-opacity:1.0; stroke-linejoin: miter">
<path d="M438.30234,714.99036Q436.65143,726.02264,434.83484,736.28766L433.30182,750.148L429.52338,768.8253L426.87415,789.5732L424.56964,801.7556Q424.20233,804.1327,424.02405,807.942Q423.22876,813.0969,426.58887,867.57153L429.05417,952.3654Q429.3868,967.07465,429.12363,972.894Q428.92447,978.3551,427.86472,978.7567Q427.69907,979.38135,427.75052,981.334Q427.91135,983.9763,428.34256,985.1338Q428.8138,986.49316,430.07242,987.23926Q430.30057,987.37024,430.23868,987.9503Q430.09818,988.98206,426.6719,993.7761Q441.0192,1002.532,444.191,1003.18945Q450.6486,1005.0963,467.91534,1005.0021Q472.4427,1004.84717,472.31628,1001.7339L472.76587,994.7977Q474.82175,983.3749,475.1699,978.7217Q475.79977,972.05524,475.85068,964.49945Q475.94345,955.3731,475.3851,941.3449Q474.75095,925.3819,473.20267,905.871Q473.0054,902.2888,473.16635,897.83264L477.92624,839.57117Q479.0361,825.1531,479.7971,811.3237Q481.50455,781.5456,483.01285,718.96484L463.98697,721.3944L438.40598,715.01636 Z"/>
</g>
<g style="fill:rgb(0,0,0); fill-opacity:1.0; stroke-linejoin: miter">
<path d="M487.34705,541.03937L482.01782,541.9808L473.41193,550.35175L477.19763,555.09515Q471.776,561.3567,466.3152,588.0178Q463.24548,602.5879,458.34415,630.8169Q447.7582,692.9635,447.24246,697.7805L461.17117,712.45447L476.56375,699.43176L486.82318,558.8393L495.25244,550.2542L487.3639,541.05853 Z"/>
</g>
<g style="fill:rgb(255,255,255); fill-opacity:1.0; stroke-linejoin: miter">
<path d="M516.1019,519.45245Q492.92493,551.2509,487.17743,567.9159Q483.5395,577.3728,480.48346,590.7295L471.09317,636.9745L447.08755,633.7993L440.55814,669.25507L472.1581,673.9273L478.259,840.5603L563.16016,840.61194Q561.6384,823.049,561.3098,815.4827Q560.60986,776.0838,559.4767,767.2331Q559.2998,761.31085,551.55383,701.1254Q550.15076,688.92554,548.5598,670.3494Q573.85986,618.1183,568.229,573.8795Q565.78845,556.9564,557.0759,548.10486Q548.46375,538.29456,522.31506,530.9327L516.2406,519.71576 Z"/>
</g>
<g style="fill:rgb(255,255,255); fill-opacity:1.0; stroke-linejoin: miter">
<path d="M468.24548,528.0618Q459.38885,536.3803,453.34784,539.2675Q450.89197,541.1077,436.26947,544.20233Q433.12463,545.2569,430.47467,546.9212Q424.48297,550.65656,419.63904,558.3886Q412.02957,570.51697,404.82053,596.5609Q397.5773,623.7053,396.76096,642.2156Q396.29825,658.4409,403.44278,661.71216Q406.2684,663.1587,410.82687,663.24963L437.9103,662.9459Q422.35498,738.3001,417.34424,766.6843Q411.44885,799.0243,405.39072,842.9082L426.66248,837.1914L465.89423,586.6333L468.23163,528.47406 Z"/>
</g>
<g style="fill:rgb(0,0,0); fill-opacity:1.0; stroke-linejoin: miter">
<path d="M466.48798,583.073L389.16226,602.4939Q388.32217,602.6262,388.68954,602.7706L430.86502,674.59564L447.56955,668.2904L440.89944,663.17444L438.34708,661.9706L449.196,633.4335L494.59583,641.12415L466.51587,583.1305 Z"/>
</g>
<g style="fill:rgb(255,193,161); fill-opacity:1.0; stroke-linejoin: miter">
<path d="M415.1387,611.49524Q412.99008,611.73474,411.67673,613.59973Q410.31216,615.73193,410.89194,617.6554Q411.14005,618.4081,411.99582,619.20447Q417.42593,623.07715,419.77933,625.91223Q422.62863,629.23206,421.75388,630.0729Q421.16483,630.6006,418.4644,629.88416L415.46024,628.9647Q406.09775,625.6167,405.2637,625.4573Q401.94223,624.46436,399.85446,624.34863Q394.7797,624.21936,396.54825,628.66675Q397.22397,630.17737,398.75327,632.0206Q399.06613,632.5189,404.7297,638.6808L406.49368,640.87317Q407.29044,642.01013,407.63333,643.01184Q407.8439,643.4175,408.22067,645.886Q408.3879,646.5093,408.63492,646.93604Q409.5084,648.43945,411.38205,649.7136Q416.45657,653.77,433.87625,654.19495L441.88815,631.24585Q438.82822,627.57776,437.42044,626.42773Q436.88486,625.9669,436.2592,625.6284L434.01334,624.589Q433.40512,624.2163,432.8983,623.73926L427.73703,617.99475Q426.08206,616.3036,424.43784,615.094Q419.05252,611.2462,415.16757,611.49207 Z"/>
</g>
<g style="fill:rgb(167,197,248); fill-opacity:1.0; stroke-linejoin: miter">
<path d="M441.5242,630.10645L431.64597,658.80493L440.62668,663.1223L440.66245,663.13806L449.36697,633.7637L441.54422,630.11584 Z"/>
</g>
<g style="fill:rgb(255,0,0); fill-opacity:0.09803922; stroke-linejoin: miter">
<path d="M472.61,513.3377L488.52887,534.6983L510.6136,515.5435Q502.8214,522.05206,498.753,524.1528Q494.01532,526.68414,490.21625,526.4545Q482.49,526.02167,472.6402,513.37555 Z"/>
</g>
<g style="fill:rgb(0,0,0); fill-opacity:0.09411765; stroke-linejoin: miter">
<path d="M540.8363,595.1737L519.49414,635.4408L502.83588,643.53705L524.0139,641.343L540.83374,595.18884 Z"/>
</g>
<g style="fill:rgb(0,0,0); fill-opacity:0.078431375; stroke-linejoin: miter">
<path d="M473.45505,676.27264L543.7998,688.9647Q546.9724,683.4526,549.3419,679.2557L549.3451,679.2563Q548.9584,675.00214,548.5598,670.3494Q548.71387,670.0313,548.8668,669.7137L548.86365,669.71454Q545.61194,673.25055,540.0559,679.46466L473.45505,676.27264 Z"/>
</g>
<g style="fill:rgb(0,0,0); fill-opacity:0.14901961; stroke-linejoin: miter">
<path d="M766.30237,1039.5519L762.8832,1041.2802Q757.4811,1042.4408,747.4547,1043.4979Q745.33167,1044.0912,706.9717,1046.4375Q673.0469,1048.2424,620.62524,1049.6344Q567.8408,1051.0248,506.72516,1051.6809Q476.16714,1052.0087,443.52643,1052.1527Q428.5079,1052.3395,340.91763,1052.1721Q306.78442,1051.9883,275.68903,1051.6476Q258.2427,1051.5751,189.23607,1050.271Q136.15704,1049.1174,95.22764,1047.3351Q3.8466778,1043.023,19.331228,1038.3726Q26.137194,1036.0574,53.026825,1034.1007Q66.47158,1033.1224,84.93723,1032.2343Q91.32957,1031.7238,151.03627,1029.7913Q250.26395,1026.9384,391.74316,1026.8169Q411.07855,1026.7252,491.91098,1027.2915Q523.3198,1027.5781,552.08765,1028.0354Q609.62354,1028.9496,656.5967,1030.5466Q710.9197,1032.6216,715.75916,1033.1443Q731.71436,1034.0776,742.64856,1035.1005Q764.5172,1037.1466,766.30237,1039.5519"/>
</g>
<g style="fill:rgb(164,174,181); fill-opacity:0.99607843; stroke-linejoin: miter">
<path d="M679.8008,859.9064L691.786,823.43854L189.8281,823.76495L6.271575,730.59265L-16.272978,776.05756L146.4897,855.13074L679.8008,859.9064"/>
</g>
<g style="fill:rgb(125,139,150); fill-opacity:0.99607843; stroke-linejoin: miter">
<path d="M290.2824,828.7669L301.66565,813.3741L313.049,797.98114L37.30569,701.03455Q22.66574,718.0387,8.025786,735.04236Q85.817665,783.8633,163.60945,832.6843L290.2824,828.7669"/>
</g>
<g style="fill:rgb(125,139,150); fill-opacity:1.0; stroke-linejoin: miter">
<path d="M91.41163,642.47485L91.411385,642.4751L91.411964,642.4756L91.41163,642.47485 Z"/>
</g>
<g style="fill:rgb(125,139,150); fill-opacity:0.99607843; stroke-linejoin: miter">
<path d="M242.60693,753.05914L242.60736,753.0601L242.6081,753.05963L242.60669,753.0601 Z"/>
</g>
<g style="fill:rgb(0,0,0); fill-opacity:0.99607843; stroke-linejoin: miter">
<path d="M103.58784,731.9138L103.4123,731.88745Q84.43296,727.22253,81.28867,726.9426Q77.797775,726.3893,74.9388,726.3152Q64.59306,726.4697,61.064957,725.99817Q53.681324,725.0923,49.457294,723.8978Q40.278866,721.303,36.765194,719.2197Q34.39584,717.9955,32.355984,716.51917L30.433773,714.97595Q28.625057,713.36206,27.271389,711.50854Q24.57803,707.77405,23.53308,703.4133Q22.358427,700.17664,23.120665,692.26013Q23.922209,686.9242,26.65054,681.19714Q29.722805,674.7285,36.569363,665.00476Q38.235073,661.31934,38.721035,659.469Q40.899593,655.0287,34.623043,649.7245Q42.249294,648.16565,45.71612,648.9584Q51.3984,649.5775,62.687126,658.49817L89.52827,690.3878L103.58784,731.9138 Z"/>
</g>
<g style="fill:rgb(255,193,161); fill-opacity:1.0; stroke-linejoin: miter">
<path d="M110.18241,737.4258L110.18363,737.42554L97.38798,730.75354L92.17924,729.22C93.322975,725.40076,93.48356,722.13586,92.4997,719.4839C91.577705,716.9988,89.68604,714.6941,86.851845,712.6919C84.437325,710.98596,82.528786,710.0929,81.28489,709.7184C80.47901,709.4761,79.69524,709.17725,78.88078,709.01C73.67415,707.9398,70.95192,707.3274,70.73024,707.09143C69.42793,706.72815,67.86742,705.9862,66.562515,704.3937C63.565323,700.7366,63.356033,697.7582,65.18495,695.7023C65.6667,695.1604,66.692184,694.6239,68.40697,694.0431C68.98988,693.84534,71.800735,693.47034,76.909195,692.9535C78.153824,692.82764,78.72673,692.43506,78.455,692.07214C77.93611,691.3801,77.15594,690.923,76.31597,690.5038C70.211235,687.46045,66.09411,685.32117,63.989006,684.0526C60.12829,681.72644,58.05117,680.12866,57.427544,679.64685C53.829002,676.8678,50.9786,673.1205,50.310326,667.87805C49.327934,660.1703,51.425804,655.0637,55.406487,652.67786C64.27825,652.5122,69.96368,652.906,72.54891,653.53723C75.41683,654.2373,77.90029,655.83813,79.926476,658.66504C90.31922,655.8849,96.40409,655.0835,98.39347,655.5459C100.85255,656.1177,101.37394,658.4546,99.824715,663.2898C103.57752,663.66785,105.82322,664.2289,106.69831,664.7705C107.674416,665.375,108.19257,666.5254,108.13184,668.43286C108.77274,667.25464,109.82926,667.04456,111.25077,667.89136C112.50897,668.6411,114.42236,670.34326,117.04425,672.91064C120.817566,673.82544,123.49417,674.7792,124.91284,675.9729C126.28531,677.12756,126.87814,678.23254,126.861725,679.09546C127.31235,680.5371,126.76605,683.7008,125.22284,688.5869L119.63968,695.85583L138.78703,719.4721L110.18241,737.4258 Z"/>
</g>
<g style="fill:rgb(254,186,155); fill-opacity:0.99607843; stroke-linejoin: miter">
<path d="M117.54913,701.9995L115.823364,704.94617Q101.672646,726.798,102.456245,745.1465Q102.88354,751.8404,107.1939,758.91473Q111.504265,765.98944,121.67897,773.4225Q144.68388,789.1963,194.2742,805.5872Q224.26366,815.7746,260.44455,825.50323Q282.18317,831.4174,304.45746,834.71967Q323.30475,787.81964,321.37402,776.8748Q321.49872,770.78046,319.91766,765.6598L317.8152,760.8367Q315.38422,756.4081,310.0976,752.782Q303.627,748.0194,287.34265,744.05035Q281.83008,742.77374,275.90027,741.7281Q245.44836,736.9274,239.62611,735.7592Q226.58345,733.14374,220.56673,730.9892Q215.02147,729.404,203.13383,723.98395Q198.89494,722.15717,175.09149,708.9992Q172.19574,707.5007,167.69604,705.9804Q165.76144,704.9837,157.42249,704.3787Q154.6489,703.81024,137.9517,706.88544Q136.31795,707.2686,132.49219,706.75745Q129.80927,706.17444,127.31299,704.1957Q124.68829,702.17175,120.4747,696.06726Q119.89981,695.4813,119.42795,695.5281Q118.059326,695.854,117.54913,701.9995 Z"/>
</g>
<g style="fill:rgb(0,0,0); fill-opacity:0.99607843; stroke-linejoin: miter">
<path d="M224.9814,916.0464L224.98146,916.0471L224.9817,916.04736L224.9814,916.0464 Z"/>
</g>
<g style="fill:rgb(255,81,0); fill-opacity:0.09411765; stroke-linejoin: miter">
<path d="M152.29648,756.6458L158.44226,759.3566Q176.90744,767.543,195.12619,775.24176Q210.23933,781.5214,213.19044,782.6364Q218.16316,784.6357,227.07521,787.9924Q240.24432,792.9206,256.45404,798.25836Q267.81143,802.0402,293.89246,810.03815L152.29648,756.6458 Z"/>
</g>
<g style="fill:rgb(255,81,0); fill-opacity:0.99607843; stroke-linejoin: miter">
<path d="M376.06888,807.7549L376.06888,807.7549L376.069,807.75525Q424.54822,822.3696,473.02737,836.98413L376.06888,807.7549 Z"/>
</g>
<g style="fill:rgb(0,0,0); fill-opacity:0.99607843; stroke-linejoin: miter">
<path d="M373.65417,972.0027L373.65417,972.0032L373.65417,972.004L373.65417,972.0027 Z"/>
</g>
<g style="fill:rgb(0,0,0); fill-opacity:0.99607843; stroke-linejoin: miter">
<path d="M494.2405,1041.065L494.2405,1041.0659L494.24075,1041.0667L494.2405,1041.065 Z"/>
</g>
<g style="fill:rgb(0,0,0); fill-opacity:0.99607843; stroke-linejoin: miter">
<path d="M307.22458,845.1767L307.22446,845.17694L307.22433,845.17755L307.22458,845.1767 Z"/>
</g>
<g style="fill:rgb(254,186,155); fill-opacity:0.99607843; stroke-linejoin: miter">
<path d="M295.2448,809.9471L295.8282,809.2907Q300.60413,803.92584,304.23193,803.44745Q311.07858,802.26636,313.41904,805.1416Q314.52713,806.6455,313.44907,809.7993Q312.64285,812.2828,309.52267,817.6673Q314.4481,818.8907,315.75095,820.3538Q317.7338,822.33453,317.68112,825.27716Q317.77164,830.9421,313.67014,836.0754Q309.2565,840.9213,300.45813,838.3969Q296.11414,837.2492,290.86768,835.07086L258.83957,821.59344L284.99506,818.9859L295.2448,809.9471 Z"/>
</g>
<g style="fill:rgb(254,186,155); fill-opacity:0.99607843; stroke-linejoin: miter">
<path d="M313.1979,801.1212L313.1979,801.1221L313.1979,801.1212L313.1979,801.1221 Z"/>
</g>
<g style="fill:rgb(125,139,150); fill-opacity:0.99607843; stroke-linejoin: miter">
<path d="M0.33612058,783.2846L-12.7775545,819.26184L163.2812,897.61096L672.00745,893.405L687.9081,846.74097L144.3065,847.7844L0.33612058,783.2846"/>
</g>
<g style="fill:rgb(164,174,181); fill-opacity:0.99607843; stroke-linejoin: miter">
<path d="M94.708435,785.2532Q95.735596,785.4247,97.14327,785.82446Q98.09203,786.06006,101.2568,787.1809 Z"/>
</g>
<g style="fill:rgb(166,248,229); fill-opacity:1.0; stroke-linejoin: miter">
<path d="M132.46619,704.56384L127.20239,708.9136Q109.00907,724.1195,104.105446,730.40796Q96.055336,740.8789,96.13938,742.8395Q91.0733,755.04193,104.23608,765.80536Q119.21672,778.3921,164.85315,796.42737Q191.09341,813.8569,201.83963,819.7547Q219.67693,829.3548,222.89458,830.1744Q236.5305,835.86017,248.41751,836.0433Q260.10928,836.0424,268.78738,829.51764L274.2994,824.66974Q279.55154,819.1857,283.56885,811.99176Q291.70148,797.1861,293.72284,780.54974Q296.87726,754.7628,282.37225,742.7966Q272.5393,735.5146,258.52966,732.9467L251.59802,731.686L217.79991,727.1651Q211.869,725.9997,206.93248,724.3674Q201.99602,722.7348,197.8521,720.8172Q194.2257,719.4859,174.31726,707.72675L169.78497,705.7902Q168.23257,705.2353,166.65274,704.80865Q154.40247,701.4417,132.46619,704.56384"/>
</g>
<g style="fill:rgb(197,231,255); fill-opacity:0.99607843; stroke-linejoin: miter">
<path d="M223.61711,853.6624L230.74611,729.22235L385.91458,750.1301Q429.33655,762.61475,471.678,772.3961Q499.83917,778.75024,526.7202,781.9006Q556.4795,784.83453,572.8058,783.8282Q578.2821,783.9205,602.3612,781.8139Q658.7538,775.0175,657.9564,775.7524Q670.8098,774.99664,677.71826,777.4045Q690.21704,782.6285,690.84973,794.7603Q688.5133,839.51434,689.308,848.94824L223.61711,853.6624"/>
</g>
<g style="fill:rgb(125,139,150); fill-opacity:0.99607843; stroke-linejoin: miter">
<path d="M306.12088,852.4556L306.12088,852.45636L257.81833,801.4897L30.355309,805.2936L0.67550653,791.8941L268.2043,788.1093L324.3733,853.8658L306.12088,852.4556"/>
</g>
<g style="fill:rgb(166,248,229); fill-opacity:1.0; stroke-linejoin: miter">
<path d="M62.807457,662.0442L62.517906,665.8137Q59.73961,703.1102,58.063614,712.43115Q57.91307,714.76245,57.97429,715.2317Q58.47496,720.4033,58.281204,721.55334Q58.257767,724.89233,54.391712,726.17126Q48.64452,727.526,37.071224,723.3895Q28.699368,720.2894,22.317503,714.26794Q20.17114,712.1133,18.546263,709.6316L17.042356,707.08594Q15.664091,704.4679,14.751036,701.6306Q12.086821,692.975,12.933287,683.6472Q13.995329,671.06335,19.955107,661.2189Q21.437346,658.84265,23.210356,656.807L25.054592,654.8733Q29.219387,651.05383,33.181454,649.56116Q44.579403,645.0132,56.256645,648.90063Q58.967186,649.7383,61.283806,653.3989Q62.740044,656.0984,62.807457,662.0442"/>
</g>
<g style="fill:rgb(124,138,150); fill-opacity:1.0; stroke-linejoin: miter">
<path d="M210.07007,877.6167L210.07007,877.61743L591.0853,877.6172C597.4358,877.6172,602.5841,882.76544,602.5841,889.11615L602.5841,889.1165L602.58386,1034.8102C602.58386,1041.161,597.43567,1046.3092,591.08484,1046.3092L591.08484,1046.3099L210.06998,1046.311C207.02036,1046.3103,204.09555,1045.0989,201.93901,1042.9426C199.78252,1040.7861,198.57103,1037.8611,198.57103,1034.8113L198.57103,1034.812L198.5711,889.1157C198.5711,886.0658,199.7826,883.14124,201.93909,880.98474C204.09564,878.8281,207.02045,877.6167,210.07007,877.6167L210.07007,877.61743 M210.07007,900.61475L221.56902,889.1157L221.56891,1034.8112L210.06998,1023.31256L591.08484,1023.31146L579.5862,1034.8102L579.5864,889.11615L591.0853,900.61505L210.07007,900.61475 Z"/>
</g>
<g style="fill:rgb(98,106,111); fill-opacity:1.0; stroke-linejoin: miter">
<path d="M121.45911,878.9994L163.2812,897.61096L198.5711,897.319L198.57103,1034.8113C198.57103,1037.8611,199.78252,1040.7861,201.93901,1042.9426C204.09555,1045.0989,207.02036,1046.3103,210.06998,1046.3103L591.08484,1046.3092C597.43567,1046.3092,602.58386,1041.161,602.58386,1034.8102L602.5841,893.97894L672.00745,893.405L676.9159,879.0L596.562,878.9999L596.5569,879.0006C596.5569,878.9999,596.5569,878.9999,596.5569,878.9999L379.53955,878.99945L204.60443,878.9994L204.60327,878.9999L121.45911,878.9994 Z"/>
</g>
<g style="fill:rgb(115,110,110); fill-opacity:0.99607843; stroke-linejoin: miter">
<path d="M579.5862,1023.31146L221.56891,1023.3132L221.56891,1023.31244L579.5862,1023.31146 Z"/>
</g>
<g style="fill:rgb(0,0,0); fill-opacity:1.0; stroke-linejoin: miter">
<path d="M524.29517,531.50256C524.12036,532.0473,523.94385,532.60736,523.7656,533.18335C519.3314,547.5112,513.7698,571.8557,508.23212,596.089C508.02502,596.9953,508.59183,597.8979,509.49814,598.105C509.62433,598.1338,509.75043,598.14764,509.8746,598.14764C510.64227,598.14764,511.33585,597.6191,511.5141,596.839C517.0664,572.54126,522.59485,548.35364,526.9817,534.17865C527.1625,533.5946,527.3412,533.02783,527.51794,532.4776Q525.9486,531.9849,524.3004,531.50256 Z"/>
</g>
<g style="fill:rgb(0,0,0); fill-opacity:1.0; stroke-linejoin: miter">
<path d="M518.2572,599.69434L518.1758,600.904Q517.5973,604.5595,514.79016,606.7512Q511.96368,608.9411,508.1334,608.5272Q504.4779,607.94867,502.28622,605.1416Q501.58398,604.2342,501.12936,603.1642L500.74725,602.06415Q500.43237,600.9287,500.42883,599.69434Q500.5244,595.90643,503.03973,593.3911Q505.55505,590.87585,509.343,590.7803Q513.131,590.87585,515.64624,593.3911Q518.1616,595.90643,518.2572,599.69434"/>
</g>
<g style="fill:rgb(60,70,79); fill-opacity:1.0; stroke-linejoin: miter">
<path d="M516.2334,599.70013L516.1704,600.6352Q516.17395,600.9841,515.6808,602.3935Q515.45386,602.9376,515.1417,603.4259Q514.5176,604.4024,513.5532,605.1555Q512.5819,605.9078,511.4576,606.2627Q510.01852,606.6192,509.68478,606.5712Q509.0651,606.5995,508.4071,606.52844Q507.7791,606.4291,507.207,606.24457Q506.88605,606.2055,505.6164,605.4997Q504.6399,604.8756,503.8869,603.9112Q502.20572,601.578,502.49054,599.06146Q502.61578,597.8086,503.11047,596.7501Q503.35785,596.22095,503.69754,595.7402Q503.81516,595.464,504.91367,594.4184Q506.73923,592.8747,509.3421,592.809Q509.6979,592.7595,511.18503,593.06616Q511.7629,593.2211,512.29224,593.46844Q513.3507,593.96313,514.21497,594.8274Q515.0791,595.6916,515.57385,596.75006Q515.82117,597.27936,515.9762,597.8572Q516.28284,599.3444,516.2334,599.70013"/>
</g>
<g style="fill:rgb(0,0,0); fill-opacity:1.0; stroke-linejoin: miter">
<path d="M456.52612,537.4959Q454.84995,538.5496,453.34784,539.2675Q453.09842,539.4544,452.72348,539.65424L443.51355,591.52496C443.35095,592.4403,443.96115,593.3141,444.87646,593.4767C444.97604,593.4944,445.07513,593.5029,445.17285,593.5029C445.97348,593.5029,446.68332,592.92957,446.82822,592.1138L456.5307,537.4959 Z"/>
</g>
</g>
</svg>